<svg width="29" height="29" viewBox="0 0 29 29" fill="none" xmlns="http://www.w3.org/2000/svg">
<path d="M19.7744 16.4417C18.4956 16.4417 18.0736 17.4143 17.9453 17.8659H21.3594C21.3274 17.6152 21.2272 17.1745 20.9081 16.8531C20.6363 16.5805 20.2561 16.4417 19.7744 16.4417Z" fill="#ECE0DA"/>
<path d="M10.9995 18.2583C10.9983 18.2583 10.9983 18.2583 10.9983 18.2583H7.76562V21.0144H10.8228C11.3681 21.0008 12.0435 20.8253 12.0435 19.6798C12.0435 18.2981 11.1064 18.2583 10.9995 18.2583Z" fill="#ECE0DA"/>
<path d="M25.574 0H2.95402C1.72513 0 0.68617 0.81237 0.34375 1.92894V26.1507C0.63274 27.0941 1.41898 27.8199 2.3971 28.0227H26.1305C27.0814 27.8257 27.8489 27.1331 28.157 26.2279V1.85172C27.7908 0.77532 26.774 0 25.574 0ZM17.0849 11.8463C17.0849 11.7382 17.173 11.6505 17.2807 11.6505H22.142C22.2489 11.6505 22.3374 11.7382 22.3374 11.8463V13.2974C22.3374 13.4055 22.2485 13.4928 22.142 13.4928H17.2807C17.173 13.4928 17.0849 13.4055 17.0849 13.2974V11.8463ZM15.0202 19.8955C15.0202 21.748 14.0402 22.6415 13.2165 23.0623C12.3191 23.5221 11.3889 23.558 11.1245 23.558H4.95355C4.84669 23.558 4.75777 23.4694 4.75777 23.3618V11.5818C4.75777 11.4738 4.84669 11.3857 4.95355 11.3857H11.0847C13.2609 11.3857 14.6131 12.6625 14.6131 14.719C14.6131 15.9927 13.9926 16.6039 13.4466 16.8948C13.7527 17.0028 14.0199 17.1752 14.2426 17.4131C15.0982 18.3179 15.0249 19.8311 15.0202 19.8955ZM24.1088 19.718C24.0971 19.8155 24.0136 19.8884 23.915 19.8884H18.0131C18.0556 20.5355 18.3118 21.0023 18.7748 21.278C19.1843 21.521 19.6371 21.5475 19.811 21.5475C19.8473 21.5475 19.8699 21.5459 19.8726 21.5452C20.55 21.5452 21.0309 21.3958 21.3144 21.101C21.5863 20.8178 21.5789 20.4976 21.5769 20.484C21.5769 20.4302 21.5949 20.3783 21.6331 20.3393C21.6693 20.3011 21.72 20.2788 21.7743 20.2788H23.8463C23.9547 20.2788 24.0429 20.3666 24.0429 20.475C24.0429 23.6461 20.6565 23.8068 19.9756 23.8068C19.8668 23.8068 19.8047 23.8029 19.8047 23.8029C19.8047 23.8029 19.804 23.8029 19.8028 23.8029C18.274 23.8029 17.0779 23.3571 16.2573 22.4788C14.9715 21.1006 15.0889 19.1724 15.0947 19.0913C15.0947 19.0566 15.1002 17.9139 15.6778 16.7544C16.2203 15.6729 17.3751 14.3828 19.8165 14.3828C21.2154 14.3828 22.3046 14.8126 23.0484 15.6597C24.4169 17.2201 24.1244 19.6166 24.1088 19.718Z" fill="#ECE0DA"/>
<path d="M11.6344 14.8429C11.6344 13.8254 11.0241 13.8137 10.9987 13.8137H10.5561H7.76562V16.05H10.785C11.2339 16.05 11.6344 15.9579 11.6344 14.8429Z" fill="#ECE0DA"/>
</svg>
