<svg width="25" height="26" viewBox="0 0 25 26" fill="none" xmlns="http://www.w3.org/2000/svg">
<path d="M12.2504 0.76123C5.4851 0.76123 0 6.24581 0 13.0115C0 18.0276 3.01634 22.3368 7.33266 24.2315C7.29816 23.3761 7.32647 22.3493 7.54587 21.4185C7.78139 20.424 9.12212 14.7434 9.12212 14.7434C9.12212 14.7434 8.7307 13.9614 8.7307 12.8052C8.7307 10.9899 9.78298 9.63403 11.0933 9.63403C12.2075 9.63403 12.7459 10.471 12.7459 11.4731C12.7459 12.5933 12.0314 14.2688 11.664 15.8206C11.3571 17.1201 12.3156 18.18 13.5976 18.18C15.9185 18.18 17.4817 15.199 17.4817 11.6669C17.4817 8.98208 15.6734 6.9725 12.3844 6.9725C8.66849 6.9725 6.35343 9.74364 6.35343 12.839C6.35343 13.9063 6.66813 14.659 7.16103 15.2417C7.38765 15.5094 7.41918 15.6172 7.3371 15.9245C7.27837 16.1499 7.14343 16.6925 7.08753 16.9076C7.00597 17.2178 6.75465 17.3287 6.47419 17.2141C4.76267 16.5154 3.96545 14.6411 3.96545 12.5341C3.96545 9.05429 6.9003 4.88162 12.7206 4.88162C17.3976 4.88162 20.4759 8.2661 20.4759 11.8991C20.4759 16.7046 17.8043 20.2948 13.8662 20.2948C12.5435 20.2948 11.2995 19.5797 10.8734 18.7678C10.8734 18.7678 10.1621 21.5903 10.0115 22.1353C9.75184 23.0798 9.2434 24.0237 8.77854 24.7595C9.88033 25.0848 11.0441 25.2619 12.2504 25.2619C19.0152 25.2619 24.5 19.7772 24.5 13.0115C24.5 6.24581 19.0152 0.76123 12.2504 0.76123Z" fill="#ECE0DA"/>
</svg>
