<svg width="20" height="20" viewBox="0 0 20 20" fill="none" xmlns="http://www.w3.org/2000/svg">
<path d="M4.75 19.6365H0.625V5.88647H4.75V19.6365ZM19.875 19.6365H15.75V12.2912C15.75 10.3772 15.068 9.42435 13.7164 9.42435C12.6453 9.42435 11.966 9.95785 11.625 11.0262V19.6365H7.5C7.5 19.6365 7.555 7.26147 7.5 5.88647H10.756L11.0076 8.63647H11.0929C11.9385 7.26147 13.2901 6.32922 15.1436 6.32922C16.553 6.32922 17.6929 6.7211 18.5632 7.7056C19.4391 8.69147 19.875 10.0142 19.875 11.8718V19.6365Z" fill="#ECE0DA"/>
<path d="M2.68594 4.51147C3.86299 4.51147 4.81719 3.58806 4.81719 2.44897C4.81719 1.30989 3.86299 0.386475 2.68594 0.386475C1.50888 0.386475 0.554688 1.30989 0.554688 2.44897C0.554688 3.58806 1.50888 4.51147 2.68594 4.51147Z" fill="#ECE0DA"/>
</svg>
