<svg width="30" height="30" viewBox="0 0 30 30" fill="none" xmlns="http://www.w3.org/2000/svg">
<path d="M26.5501 6.83593C25.7002 7.21273 24.787 7.46743 23.8282 7.58173C24.8065 6.99523 25.5583 6.06643 25.9117 4.96033C24.9961 5.50333 23.9815 5.89813 22.9024 6.10993C22.0381 5.18953 20.8063 4.61353 19.4431 4.61353C16.8259 4.61353 14.7037 6.73513 14.7037 9.35293C14.7037 9.72403 14.7457 10.0861 14.8267 10.4332C10.8877 10.2355 7.39572 8.34853 5.05812 5.48083C4.65012 6.18103 4.41642 6.99553 4.41642 7.86373C4.41642 9.50803 5.25312 10.9582 6.52482 11.8084C5.74812 11.7835 5.01732 11.5702 4.37832 11.2156C4.37772 11.2354 4.37772 11.2549 4.37772 11.2753C4.37772 13.5709 6.01122 15.4864 8.17902 15.9223C7.78152 16.03 7.36302 16.0882 6.93072 16.0882C6.62502 16.0882 6.32832 16.0588 6.03882 16.0033C6.64182 17.8858 8.39202 19.2565 10.4659 19.2949C8.84382 20.5657 6.80052 21.3238 4.57992 21.3238C4.19742 21.3238 3.82032 21.3016 3.44922 21.2575C5.54652 22.6021 8.03772 23.3863 10.714 23.3863C19.4314 23.3863 24.1984 16.165 24.1984 9.90283C24.1984 9.69763 24.1936 9.49273 24.1846 9.28903C25.1113 8.62123 25.915 7.78633 26.5501 6.83593Z" fill="#ECE0DA"/>
</svg>
